<svg width="42" height="42" viewBox="0 0 42 42" fill="none" xmlns="http://www.w3.org/2000/svg">
<path d="M29.0958 41.4639H12.9194C9.69803 41.4576 6.61068 40.1735 4.335 37.8934C2.05933 35.6133 0.781244 32.5235 0.78125 29.3021V13.1257C0.781244 9.90425 2.05933 6.81442 4.335 4.53431C6.61068 2.25421 9.69803 0.970122 12.9194 0.963867H29.0958C32.3194 0.970108 35.4092 2.25344 37.6886 4.53287C39.9681 6.8123 41.2514 9.90208 41.2576 13.1257V29.3021C41.2514 32.5257 39.9681 35.6154 37.6886 37.8949C35.4092 40.1743 32.3194 41.4576 29.0958 41.4639V41.4639ZM12.9194 4.78952C10.7086 4.78952 8.58823 5.66779 7.0249 7.23113C5.46156 8.79446 4.58329 10.9148 4.58329 13.1257V29.3021C4.58329 31.513 5.46156 33.6333 7.0249 35.1966C8.58823 36.76 10.7086 37.6382 12.9194 37.6382H29.0958C31.3089 37.6382 33.4317 36.7607 34.9987 35.1981C36.5658 33.6354 37.4494 31.5151 37.4556 29.3021V13.1257C37.4494 10.9126 36.5658 8.79234 34.9987 7.22968C33.4317 5.66703 31.3089 4.78951 29.0958 4.78952H12.9194Z" fill="white"/>
</svg>
