<svg width="39" height="32" viewBox="0 0 39 32" fill="none" xmlns="http://www.w3.org/2000/svg">
<path d="M37.9075 4.19452C36.6745 4.72595 35.3779 5.09489 34.0502 5.29211C34.6693 5.29211 35.5741 4.07522 35.955 3.62186C36.5201 2.91206 36.9481 2.10286 37.217 1.23578C37.217 1.23578 37.217 1.06876 37.217 1.02103C37.1844 1.00219 37.1475 0.992263 37.1099 0.992263C37.0722 0.992263 37.0353 1.00219 37.0027 1.02103C35.5653 1.78975 34.0375 2.37492 32.4549 2.76287C32.4071 2.78796 32.354 2.80106 32.3001 2.80106C32.2462 2.80106 32.1931 2.78796 32.1453 2.76287C32.0225 2.6087 31.8871 2.46504 31.7406 2.33338C31.0824 1.76671 30.3338 1.31501 29.5262 0.997169C28.4574 0.55196 27.2994 0.364001 26.1451 0.448371C25.029 0.518223 23.9409 0.827433 22.9544 1.35508C21.9537 1.87789 21.0704 2.60062 20.3591 3.4787C19.6209 4.38542 19.0923 5.44477 18.8114 6.5806C18.5971 7.65967 18.5971 8.77047 18.8114 9.84954C18.8114 10.0404 18.8114 10.0643 18.6447 10.0404C12.6166 9.42892 7.03549 6.57717 3.00117 2.04705C2.81069 1.85616 2.71545 1.85616 2.57258 2.04705C1.75439 3.55053 1.4444 5.27922 1.68908 6.9741C1.93376 8.66897 2.71993 10.2387 3.92979 11.4482C4.23075 11.7449 4.54877 12.0238 4.88221 12.2833C3.83006 12.2022 2.80336 11.9186 1.85826 11.4482C1.66777 11.3289 1.59635 11.4482 1.57254 11.5914C1.53748 11.8926 1.53748 12.1969 1.57254 12.4981C1.7454 13.9117 2.29093 15.2537 3.15301 16.386C4.01509 17.5183 5.1626 18.4 6.47752 18.9405C6.7947 19.0904 7.13134 19.1948 7.47756 19.2507C6.49309 19.4251 5.48571 19.4251 4.50124 19.2507C4.28694 19.2507 4.21552 19.2507 4.28695 19.537C4.79631 20.8662 5.63725 22.0422 6.72941 22.9529C7.82157 23.8636 9.12847 24.4784 10.5253 24.7387C10.811 24.7387 11.073 24.7387 11.3587 24.7387C11.6444 24.7387 11.3587 24.7387 11.3587 24.7387C10.6682 25.8124 8.23951 26.5998 7.12042 27.1248C5.0546 27.8654 2.85353 28.1503 0.667728 27.9599C0.310569 27.9599 0.239135 27.9599 0.143892 27.9599C0.0486501 27.9599 0.143892 28.103 0.143892 28.1746C0.143892 28.2462 1.04871 28.7234 1.50111 28.9859C2.87229 29.7113 4.31711 30.2872 5.81083 30.7039C9.66077 31.8651 13.7474 31.9936 17.6624 31.0766C21.5774 30.1597 25.1838 28.2293 28.1213 25.4784C30.2332 23.1811 31.8664 20.4847 32.9253 17.5471C33.9842 14.6094 34.4476 11.4895 34.2883 8.37016C34.2883 8.13155 34.574 7.98839 34.7407 7.86908C35.9097 7.02023 36.959 6.01695 37.8599 4.88648C37.9885 4.71478 38.0556 4.50461 38.0504 4.28996C38.0504 4.28996 38.0504 4.1468 37.9075 4.19452Z" fill="white"/>
</svg>
