<svg width="39" height="28" viewBox="0 0 39 28" fill="none" xmlns="http://www.w3.org/2000/svg">
<path d="M38.019 8.94957C38.019 6.75122 37.1457 4.64289 35.5912 3.08842C34.0368 1.53394 31.9284 0.660645 29.7301 0.660645H8.47641C6.27805 0.660645 4.16972 1.53394 2.61525 3.08842C1.06077 4.64289 0.1875 6.75122 0.1875 8.94957V18.8207C0.1875 21.0191 1.06077 23.1274 2.61525 24.6819C4.16972 26.2363 6.27805 27.1096 8.47641 27.1096H29.7301C31.9284 27.1096 34.0368 26.2363 35.5912 24.6819C37.1457 23.1274 38.019 21.0191 38.019 18.8207V8.94957ZM25.5502 14.6172L16.1041 19.3403C15.7263 19.5528 14.451 19.3402 14.451 18.8443V9.18572C14.451 8.73703 15.7263 8.47727 16.1041 8.68981L25.2196 13.649C25.5502 13.8615 25.9516 14.4047 25.5502 14.6172Z" fill="white"/>
</svg>
