<svg width="150" height="150" viewBox="0 0 160 153" fill="none" xmlns="http://www.w3.org/2000/svg">
<path d="M1.78125 3.20075C8.12195 3.3989 22.23 7.83739 27.9367 24.0062C36.2588 8.15442 58.2531 -14.038 79.653 24.0062" stroke="#8B3418" stroke-width="6"/>
<path d="M159.309 3.39383C152.726 3.58448 138.079 7.85495 132.155 23.4117C123.515 8.15999 100.681 -13.1924 78.4646 23.4117" stroke="#8B3418" stroke-width="6"/>
<path d="M1.78125 86.6236C8.12195 86.8217 22.23 91.2602 27.9367 107.429C36.2588 91.5773 58.2531 69.3848 79.653 107.429" stroke="#8B3418" stroke-width="6"/>
<path d="M159.309 86.8167C152.726 87.0073 138.079 91.2778 132.155 106.835C123.515 91.5828 100.681 70.2305 78.4646 106.835" stroke="#8B3418" stroke-width="6"/>
<path d="M79.6557 69.7783L55.9749 23.4119L103.337 23.4119L79.6557 69.7783Z" fill="#F28B6A"/>
<path d="M27.3432 153L3.66236 106.634L51.0241 106.634L27.3432 153Z" fill="#F28B6A"/>
<path d="M131.964 153L108.283 106.634L155.645 106.634L131.964 153Z" fill="#F28B6A"/>
<path fill-rule="evenodd" clip-rule="evenodd" d="M61.8242 106.633H97.4907V139.922H97.4922V152.405L79.6591 139.922H79.6573L61.8242 152.405V139.922V139.922V106.633Z" fill="#EE6337"/>
<path fill-rule="evenodd" clip-rule="evenodd" d="M114 23H149.666V56.2886H149.668V68.7718L131.835 56.2887H131.833L114 68.7718V56.2887V56.2886V23Z" fill="#EE6337"/>
<path fill-rule="evenodd" clip-rule="evenodd" d="M9 23H44.6665V56.2886H44.668V68.7718L26.8349 56.2887H26.8331L9 68.7718V56.2887V56.2886V23Z" fill="#EE6337"/>
</svg>
