<svg width="150" height="150" viewBox="0 0 122 150" fill="none" xmlns="http://www.w3.org/2000/svg">
<rect x="49.6172" y="32.3076" width="71.5385" height="117.692" fill="#C7522E"/>
<rect x="17.3086" y="32.3076" width="32.3077" height="117.692" fill="#8B3418"/>
<rect x="49.6172" y="15" width="49.6154" height="117.692" fill="#EE6337"/>
<rect y="15" width="49.6154" height="117.692" fill="#C7522E"/>
<path d="M68.5038 62.1551C60.9492 54.0727 52.765 58.7874 49.6172 62.1551V98.077C59.0605 89.4707 76.0584 70.2375 68.5038 62.1551Z" fill="#F28B6A"/>
<path d="M30.7306 62.1551C38.2852 54.0727 46.4694 58.7874 49.6172 62.1551V98.077C40.1739 89.4707 23.1759 70.2375 30.7306 62.1551Z" fill="#EE6337"/>
<path d="M28.2856 8.65356C22.7471 8.19203 21.7471 12.692 21.9394 14.9997H13.8633C13.4017 2.99949 23.2858 -0.000187792 28.2856 0C38.9003 0 42.7089 8.46154 43.2864 12.6923V27.6923C41.9017 39.6923 32.7089 41.9231 28.2856 41.5385V32.8846C33.3625 32.8846 34.6322 29.4231 34.6325 27.6923V14.9997C34.8246 13.0766 33.824 9.1151 28.2856 8.65356Z" fill="#F28B6A"/>
</svg>
