<svg width="150" height="150" viewBox="0 0 154 150" fill="none" xmlns="http://www.w3.org/2000/svg">
<path d="M31.0345 60.3447L0 150L60.9195 89.6551L31.0345 60.3447Z" fill="#F28B6A"/>
<path d="M90.2305 119.54L0.000587463 150L60.9201 89.6552L90.2305 119.54Z" fill="#8B3418"/>
<path d="M96.55 125.862L24.7109 54.023L31.0328 47.7012L102.872 119.54L96.55 125.862Z" fill="#C7522E"/>
<path fill-rule="evenodd" clip-rule="evenodd" d="M46.883 0H54.2678C55.7799 10.5716 64.1418 18.9335 74.7134 20.4455V27.8308C64.142 29.3428 55.7801 37.7045 54.2679 48.2759H46.8829C45.3707 37.7045 37.0089 29.3428 26.4375 27.8308V20.4455C37.0091 18.9335 45.371 10.5716 46.883 0Z" fill="#EE6337"/>
<path fill-rule="evenodd" clip-rule="evenodd" d="M122.742 74.7124H130.127C131.639 85.2837 140.001 93.6454 150.573 95.1574V102.543C140.001 104.055 131.639 112.417 130.127 122.988H122.742C121.23 112.417 112.868 104.055 102.297 102.543V95.1574C112.868 93.6454 121.23 85.2837 122.742 74.7124Z" fill="#F28B6A"/>
<rect x="66.668" y="45.9771" width="8.04598" height="8.04598" fill="#EE6337"/>
<rect x="85.0586" y="71.2642" width="9.1954" height="9.1954" fill="#F28B6A"/>
<rect x="141.379" y="35.6323" width="9.1954" height="9.1954" fill="#F28B6A"/>
<path d="M93.6768 34.4828L87.9297 28.1609C98.9642 18.9655 100.957 5.55556 100.573 0H109.194C110.114 16.5517 99.2324 29.8851 93.6768 34.4828Z" fill="#F28B6A"/>
<path d="M104.565 68.4514L110.297 72.8334C117.242 62.8886 128.382 60.2496 133.085 60.1732L132.466 52.9194C118.473 53.3338 108.035 63.4467 104.565 68.4514Z" fill="#F28B6A"/>
<path d="M111.79 35.3373L117.816 41.9537C126.767 29.1403 144.584 22.3173 151.183 21.5886L149.727 13.0132C130.103 15.4049 118.965 25.2872 111.79 35.3373Z" fill="#F28B6A"/>
</svg>
